<svg xmlns="http://www.w3.org/2000/svg" xmlns:xlink="http://www.w3.org/1999/xlink" viewBox="0 0 48 48" id="high-five">
  <defs>
    <linearGradient id="c" x1="14.5" x2="14.5" y1="28" y2="8" gradientUnits="userSpaceOnUse">
      <stop offset="0" stop-color="#54a5ff"></stop>
      <stop offset="1" stop-color="#8ad3fe"></stop>
    </linearGradient>
    <linearGradient id="b" x1="12" x2="12" y1="14" y2="6" gradientUnits="userSpaceOnUse">
      <stop offset="0" stop-color="#d3e6f5"></stop>
      <stop offset="1" stop-color="#f0f7fc"></stop>
    </linearGradient>
    <linearGradient id="a" x1="11" x2="11" y1="14" y2="2" gradientUnits="userSpaceOnUse">
      <stop offset="0" stop-color="#fe9661"></stop>
      <stop offset="1" stop-color="#ffb369"></stop>
    </linearGradient>
    <linearGradient xlink:href="#a" id="d" x1="14.5" x2="14.5" y1="28" y2="8" gradientTransform="matrix(-1 0 0 1 48 0)"></linearGradient>
    <linearGradient xlink:href="#b" id="e" gradientTransform="matrix(-1 0 0 1 48 0)"></linearGradient>
    <linearGradient xlink:href="#c" id="f" x1="11" x2="11" y1="14" y2="2" gradientTransform="matrix(-1 0 0 1 48 0)"></linearGradient>
  </defs>
  <g>
    <path fill="url(#c)" d="M24,8l-1.52,7.59A3,3,0,0,1,19.54,18H15V28H5V19.21a6,6,0,0,1,2.67-5L8,14H19l2-6Z"></path>
    <path fill="url(#b)" d="M8,14h5a1,1,0,0,0,1-1V11h2L15,6H8Z"></path>
    <path fill="url(#a)" d="M17,2V3.66A2.34,2.34,0,0,1,14.66,6h-3.1A2,2,0,0,0,9.62,8.49L10,10H8v4a3,3,0,0,1-3-3V6A4,4,0,0,1,9,2Z"></path>
    <path fill="#4795ea" d="M5,28a6.84,6.84,0,0,0,2,5,6.82,6.82,0,0,1,2,4.83V44h6V28Z"></path>
    <path fill="#d7e9f7" d="M17 47H10a1 1 0 01-1-1V44h6a2 2 0 012 2zM22.5 4h0A1.5 1.5 0 0124 5.5V8a0 0 0 010 0H21a0 0 0 010 0V5.5A1.5 1.5 0 0122.5 4z"></path>
    <path fill="#4795ea" d="M13,20h2V18H13a1,1,0,0,0,0,2Z"></path>
    <path fill="url(#d)" d="M24,8l1.52,7.59A3,3,0,0,0,28.46,18H33V28H43V19.21a6,6,0,0,0-2.67-5L40,14H29L27,8Z"></path>
    <path fill="url(#e)" d="M40,14H35a1,1,0,0,1-1-1V11H32l1-5h7Z"></path>
    <path fill="url(#f)" d="M31,4a2,2,0,0,0,2,2h3.44a2,2,0,0,1,1.94,2.49L38,10h2v4a3,3,0,0,0,3-3V6a4,4,0,0,0-4-4H33A2,2,0,0,0,31,4Z"></path>
    <path fill="#eb7f58" d="M43,28a6.84,6.84,0,0,1-2,5,6.82,6.82,0,0,0-2,4.83V44H33V28Z"></path>
    <path fill="#d7e9f7" d="M31,47h7a1,1,0,0,0,1-1V44H33a2,2,0,0,0-2,2Z"></path>
    <path fill="#d7e9f7" d="M24,4h3a0,0,0,0,1,0,0V6.5A1.5,1.5,0,0,1,25.5,8h0A1.5,1.5,0,0,1,24,6.5V4A0,0,0,0,1,24,4Z" transform="rotate(180 25.5 6)"></path>
    <path fill="#eb7f58" d="M35,20H33V18h2a1,1,0,0,1,0,2Z"></path>
  </g>
</svg>